# AST/ASF file generated using VICON BodyLanguage
# -----------------------------------------------
:version 1.10
:name VICON
:units
  mass 1.0
  length 0.1
  angle deg
:documentation
   .ast/.asf automatically generated from VICON data using
   VICON BodyBuilder and BodyLanguage model FULLBODY5.MOD
:root
   order TX TY TZ RZ RY RX
   axis XYZ
   position 0 0 0  
   orientation 0 -0 0 
:bonedata
  begin
     id 1 
     name lhipjoint
     direction 0.969109 -0.218487 0.11442 
     length 0.544217 
     axis 0 -0 0  XYZ
  end
  begin
     id 2 
     name lfemur
     direction 0.173648 -0.984808 0  
     length 1.81499  
     axis 0 -0 10  XYZ
    dof rx ry rz
    limits (-180.0 180.0)
           (-180.0 180.0)
           (-180.0 180.0)
  end
  begin
     id 3 
     name ltibia
     direction 0.173515 -0.984831 0   
     length 1.55296   
     axis 0 -0 10   XYZ
    dof rx ry rz
    limits (-180.0 180.0)
           (-180.0 180.0)
           (-180.0 180.0)
  end
  begin
     id 4 
     name lfoot
     direction 7.36097e-012 -0.333012 0.942922   
     length 0.509062   
     axis -90 -1.73656e-015 10   XYZ
    dof rx ry rz
    limits (-180.0 180.0)
           (-180.0 180.0)
           (-180.0 180.0)
  end
  begin
     id 5 
     name ltoes
     direction 7.7847e-012 -4.42403e-011 1   
     length 0.249732   
     axis -90 -1.73656e-015 10   XYZ
    dof rx ry rz
    limits (-180.0 180.0)
           (-180.0 180.0)
           (-180.0 180.0)
  end
  begin
     id 6 
     name rhipjoint
     direction -0.966745 -0.226554 0.118645   
     length 0.524838  
     axis 0 -0 0  XYZ 
  end
  begin
     id 7 
     name rfemur
     direction -0.173648 -0.984808 0   
     length 1.84625   
     axis 0 -0 -10   XYZ
    dof rx ry rz
    limits (-180.0 180.0)
           (-180.0 180.0)
           (-180.0 180.0)
  end
  begin
     id 8 
     name rtibia
     direction -0.173714 -0.984796 0   
     length 1.577   
     axis 0 -0 -10   XYZ
    dof rx ry rz
    limits (-180.0 180.0)
           (-180.0 180.0)
           (-180.0 180.0)
 end
 begin
     id 9 
     name rfoot
     direction -0.0183819 -0.0406144 0.999006   
     length 0.490111  
     axis -90 1.73656e-015 -10   XYZ
    dof rx ry rz
    limits (-180.0 180.0)
           (-180.0 180.0)
           (-180.0 180.0)
  end
  begin
     id 10 
     name rtoes
     direction -7.79087e-012 -4.42375e-011 1   
     length 0.245053   
     axis -90 1.73656e-015 -10   XYZ
    dof rx ry rz
    limits (-180.0 180.0)
           (-180.0 180.0)
           (-180.0 180.0)
  end
  begin
     id 11 
     name lowerback
     direction -0.0664844 0.980601 0.184393   
     length 0.458979   
     axis 0 -0 0   XYZ
    dof rx ry rz
    limits (-180.0 180.0)
           (-180.0 180.0)
           (-180.0 180.0)
  end
  begin
     id 12 
     name upperback
     direction 0.0135995 0.999573 0.02588   
     length 0.463983   
     axis 0 -0 0   XYZ
    dof rx ry rz
    limits (-180.0 180.0)
           (-180.0 180.0)
           (-180.0 180.0)
  end
  begin
     id 13 
     name thorax
     direction 0.0468402 0.997311 -0.0563691   
     length 0.482746   
     axis 0 -0 0   XYZ
    dof rx ry rz
    limits (-180.0 180.0)
           (-180.0 180.0)
           (-180.0 180.0)
  end
  begin
     id 14 
     name lowerneck
     direction -0.00174311 0.988586 -0.150647   
     length 0.364383   
     axis 0 -0 0   XYZ
    dof rx ry rz
    limits (-180.0 180.0)
           (-180.0 180.0)
           (-180.0 180.0)
  end
  begin
     id 15 
     name upperneck
     direction -0.02653 0.999379 -0.0231908   
     length 0.361006   
     axis 0 -0 0   XYZ
    dof rx ry rz
    limits (-180.0 180.0)
           (-180.0 180.0)
           (-180.0 180.0)
  end
  begin
     id 16
     name head
     direction -0.00819207 0.999941 0.00714285  
     length 0.378714  
     axis 0 -0 0   XYZ
    dof rx ry rz
    limits (-180.0 180.0)
           (-180.0 180.0)
           (-180.0 180.0)
  end
  begin
     id 17 
     name lshoulderjoint
     direction 0.981627 -0.190809 0  
     length 0.612969  
     axis 0 -0 -11   XYZ
    dof rx ry rz
    limits (-180.0 180.0)
           (-180.0 180.0)
           (-180.0 180.0)
  end
  begin
     id 18 
     name lhumerus
     direction 0.48481 -0.87462 -9.72962e-027   
     length 1.19637   
     axis -180 5.14477e-009 -151   XYZ
    dof rx ry rz
    limits (-180.0 180.0)
           (-180.0 180.0)
           (-180.0 180.0)
  end
  begin
     id 19
     name lradius
     direction 0.48481 -0.87462 -2.35761e-026   
     length 0.637735   
     axis -180 5.14477e-009 -151   XYZ
    dof rx ry rz
    limits (-180.0 180.0)
           (-180.0 180.0)
           (-180.0 180.0)
  end
  begin
     id 20
     name lwrist
     direction 0.48481 -0.87462 -5.51856e-026   
     length 0.318868   
     axis -180 5.14477e-009 -151   XYZ
    dof rx ry rz
    limits (-180.0 180.0)
           (-180.0 180.0)
           (-180.0 180.0)
  end
  begin
     id 21 
     name lhand
     direction 0.477747 -0.861928 -0.169816   
     length 0.29526   
     axis -180 5.14477e-009 -151   XYZ
    dof rx ry rz
    limits (-180.0 180.0)
           (-180.0 180.0)
           (-180.0 180.0)
  end
  begin
     id 22 
     name rshoulderjoint
     direction -0.981627 -0.190809 0   
     length 0.572347  
     axis 0 -0 11   XYZ 
    dof rx ry rz
    limits (-180.0 180.0)
           (-180.0 180.0)
           (-180.0 180.0)
  end
  begin
     id 23 
     name rhumerus
     direction -0.48481 -0.87462 1.64836e-026  
     length 1.28846   
     axis 180 5.14477e-009 151   XYZ
    dof rx ry rz
    limits (-180.0 180.0)
           (-180.0 180.0)
           (-180.0 180.0)
  end
  begin
     id 24 
     name rradius
     direction -0.48481 -0.87462 2.86827e-026   
     length 0.62107   
     axis 180 5.14477e-009 151   XYZ
    dof rx ry rz
    limits (-180.0 180.0)
           (-180.0 180.0)
           (-180.0 180.0)
  end
  begin
     id 25 
     name rwrist
     direction -0.48481 -0.87462 5.20942e-026   
     length 0.310535   
     axis 180 5.14477e-009 151   XYZ
    dof rx ry rz
    limits (-180.0 180.0)
           (-180.0 180.0)
           (-180.0 180.0)
  end
  begin
     id 26
     name rhand
     direction -0.477664 -0.861515 -0.172133   
     length 0.291321   
     axis 180 5.14477e-009 151   XYZ
    dof rx ry rz
    limits (-180.0 180.0)
           (-180.0 180.0)
           (-180.0 180.0)
  end
:hierarchy
  begin
    root lhipjoint rhipjoint lowerback 
    lhipjoint lfemur
    lfemur ltibia
    ltibia lfoot
    lfoot ltoes
    rhipjoint rfemur
    rfemur rtibia
    rtibia rfoot
    rfoot rtoes
    lowerback upperback
    upperback thorax
    thorax lowerneck lshoulderjoint rshoulderjoint
    lowerneck upperneck
    upperneck head
    lshoulderjoint lhumerus
    lhumerus lradius
    lradius lwrist
    lwrist lhand
    rshoulderjoint rhumerus
    rhumerus rradius
    rradius rwrist
    rwrist rhand
  end

:FULLY-SPECIFIED
:DEGREES
680
root 10.2609 3.68714 -0.440537 87.8198 -68.7075 86.5871
lowerback -25.6267 -1.09407 -6.97016
upperback -7.10287 -0.301252 0.856072
thorax 6.31437 -0.423561 4.83151
lowerneck 13.2732 -3.11951 2.05408
upperneck 6.52913 -4.1245 -4.549
head -0.309348 -2.10276 -1.60223
rshoulderjoint -2.5786 7.80192 -29.3536
rhumerus 345.84 -10.2228 -412.215
rradius 24.7526 -1.36478e-014 6.99722e-014
rwrist -5.12509e-013 -2.37232 1.09823e-013
rhand -4.09483 2.09448 23.27
lshoulderjoint -1.86324 -5.72446 29.0635
lhumerus 349.439 1.86984 416.76
lradius 17.4522 -3.57812e-015 5.56597e-014
lwrist -4.0196e-013 -4.44653 7.39718e-014
lhand 4.16417 3.84186 -33.3427
rfemur -20.0435 15.6682 6.12179
rtibia 3.58131 -9.54166e-015 -7.15625e-015
rfoot -176.696 -30.4751 161.345
rtoes 4.96962e-014 -5.03112e-014 -4.95098e-015
lfemur -14.9765 -16.7317 -10.7554
ltibia -4.37326e-014 2.54444e-014 1.59028e-015
lfoot -7.44139 5.03191 17.847
ltoes -5.18828e-014 -3.97569e-016 -3.81667e-014
681
root 10.26 3.68714 -0.440773 87.9233 -68.7053 86.6907
lowerback -25.6563 -1.1003 -6.96267
upperback -7.07661 -0.307902 0.871957
thorax 6.35941 -0.42845 4.8431
lowerneck 13.2485 -3.10042 2.05227
upperneck 6.51225 -4.09886 -4.59476
head -0.311257 -2.08916 -1.61806
rshoulderjoint -2.52657 7.57302 -29.5114
rhumerus 346.002 -10.414 -412.372
rradius 24.7593 7.45443e-016 1.82882e-014
rwrist -6.33476e-013 -2.37774 7.16241e-015
rhand -4.0919 2.24213 23.2371
lshoulderjoint -1.84648 -5.67577 29.0545
lhumerus 349.491 2.49503 416.744
lradius 17.4299 -1.18277e-014 -2.98177e-014
lwrist -5.75842e-013 -4.47006 -9.61065e-014
lhand 4.32176 3.76718 -33.3678
rfemur -20.0595 15.7188 6.11608
rtibia 3.61692 -3.81667e-014 -4.37326e-015
rfoot -176.672 -30.4512 161.319
rtoes 4.57205e-014 -4.80313e-014 -1.32999e-014
lfemur -14.9604 -16.7215 -10.7572
ltibia 5.00937e-014 -1.11319e-014 5.96354e-015
lfoot -7.46082 4.99258 17.8768
ltoes -4.8901e-014 -2.086e-014 7.95139e-016
682
root 10.2592 3.68711 -0.440907 88.0073 -68.6976 86.7825
lowerback -25.6877 -1.12038 -6.96392
upperback -7.06386 -0.334428 0.920508
thorax 6.39284 -0.442609 4.88995
lowerneck 13.2778 -3.07524 1.99736
upperneck 6.47627 -4.07317 -4.64961
head -0.32709 -2.07611 -1.62678
rshoulderjoint -2.53189 7.58815 -29.5136
rhumerus 346.061 -10.7209 -412.296
rradius 24.7166 -6.60959e-014 -8.74653e-014
rwrist 1.26057e-012 -2.36567 -5.25239e-014
rhand -4.0555 2.24707 23.2128
lshoulderjoint -1.84081 -5.67312 29.0105
lhumerus 349.515 3.24877 416.743
lradius 17.4161 -2.90226e-014 -4.21423e-014
lwrist 1.06571e-012 -4.57785 2.61241e-014
lhand 4.45947 3.73221 -33.3779
rfemur -20.076 15.7642 6.11622
rtibia 3.64055 2.8625e-014 3.97569e-015
rfoot -176.649 -30.4286 161.289
rtoes -4.37326e-014 1.4356e-014 1.63252e-014
lfemur -14.9546 -16.7154 -10.7473
ltibia -2.54444e-014 -2.54444e-014 -3.97569e-016
lfoot -7.48202 4.99533 17.9014
ltoes 4.96962e-014 5.20567e-015 -9.54166e-015
683
root 10.2583 3.68705 -0.441056 88.12 -68.6806 86.8847
lowerback -25.7397 -1.14013 -6.97446
upperback -7.05079 -0.355898 0.95382
thorax 6.43604 -0.455015 4.92686
lowerneck 13.3016 -3.03939 1.97298
upperneck 6.44667 -4.02916 -4.69954
head -0.339994 -2.05344 -1.64024
rshoulderjoint -2.54307 7.62621 -29.5039
rhumerus 346.147 -11.0443 -412.229
rradius 24.6039 -3.69739e-014 4.77083e-015
rwrist 6.78027e-013 -2.34794 6.76436e-014
rhand -3.96816 2.27718 23.196
lshoulderjoint -1.83547 -5.67204 28.9648
lhumerus 349.536 3.7724 416.738
lradius 17.3815 1.52567e-014 4.19436e-014
lwrist 6.5578e-013 -4.66936 1.20665e-013
lhand 4.50144 3.85936 -33.4363
rfemur -20.0888 15.8124 6.09353
rtibia 3.64065 1.27222e-014 7.55382e-015
rfoot -176.647 -30.4058 161.286
rtoes -6.40087e-014 3.06625e-014 7.95698e-014
lfemur -14.9568 -16.7073 -10.758
ltibia -4.05521e-014 1.59028e-015 -4.37326e-015
lfoot -7.50293 4.9392 17.9326
ltoes 6.40087e-014 3.67752e-015 2.38542e-015
684
root 10.2573 3.68691 -0.441243 88.213 -68.6722 86.9712
lowerback -25.7667 -1.1589 -6.9821
upperback -7.04576 -0.378695 0.981481
thorax 6.45806 -0.467139 4.95522
lowerneck 13.334 -3.01802 1.96339
upperneck 6.42235 -4.00252 -4.75629
head -0.353727 -2.03917 -1.65764
rshoulderjoint -2.54651 7.63529 -29.5068
rhumerus 346.229 -11.0942 -412.208
rradius 24.4939 5.02925e-014 -9.85972e-014
rwrist -3.18318e-015 -2.32754 -2.22027e-013
rhand -3.94461 2.1493 23.2343
lshoulderjoint -1.83407 -5.67162 28.9532
lhumerus 349.534 4.35821 416.758
lradius 17.3573 3.77691e-015 -2.24627e-014
lwrist 9.57505e-014 -4.78626 -3.27148e-014
lhand 4.58535 3.88109 -33.4914
rfemur -20.0901 15.8565 6.07983
rtibia 3.63814 -5.08889e-014 5.56597e-015
rfoot -176.64 -30.3863 161.272
rtoes -1.76918e-013 -4.31686e-013 5.85359e-014
lfemur -14.9481 -16.7036 -10.7635
ltibia -2.94201e-014 6.67916e-014 1.59028e-014
lfoot -7.52241 4.92233 17.9621
ltoes 2.19458e-013 -2.39772e-013 -2.54444e-014
685
root 10.2565 3.68681 -0.441463 88.3134 -68.6619 87.0724
lowerback -25.8026 -1.17047 -6.97674
upperback -7.03068 -0.393194 1.00163
thorax 6.49484 -0.475721 4.97035
lowerneck 13.329 -2.99768 1.96522
upperneck 6.41807 -3.97531 -4.79698
head -0.354646 -2.02512 -1.67244
rshoulderjoint -2.54487 7.6321 -29.5029
rhumerus 346.306 -11.199 -412.186
rradius 24.4546 -5.64548e-014 1.07344e-013
rwrist 4.07439e-013 -2.29904 2.61811e-013
rhand -3.90891 2.13648 23.2369
lshoulderjoint -1.83712 -5.68538 28.9405
lhumerus 349.555 4.76827 416.767
lradius 17.3276 -4.57205e-015 6.38099e-014
lwrist 3.97388e-013 -4.82685 1.60392e-013
lhand 4.62806 3.90422 -33.5839
rfemur -20.103 15.9055 6.07193
rtibia 3.64744 4.45278e-014 5.1684e-015
rfoot -176.616 -30.3665 161.241
rtoes -1.22054e-013 -1.04797e-014 5.1156e-014
lfemur -14.9453 -16.6941 -10.7606
ltibia -1.59028e-014 -3.33958e-014 -1.35174e-014
lfoot -7.53981 4.9048 17.9839
ltoes 1.30403e-013 3.78685e-014 3.18055e-014
686
root 10.2556 3.68671 -0.441613 88.3878 -68.6265 87.1561
lowerback -25.8455 -1.17999 -6.94814
upperback -7.04169 -0.413076 1.01326
thorax 6.50676 -0.486194 4.96076
lowerneck 13.3333 -2.97641 1.98295
upperneck 6.43597 -3.94496 -4.84847
head -0.350522 -2.00968 -1.69374
rshoulderjoint -2.55034 7.6403 -29.5216
rhumerus 346.357 -11.2748 -412.206
rradius 24.4035 3.47873e-014 9.06458e-014
rwrist -9.45357e-013 -2.2556 9.62864e-014
rhand -3.85223 2.13114 23.2361
lshoulderjoint -1.84327 -5.69966 28.9547
lhumerus 349.513 4.97646 416.812
lradius 17.3134 5.96354e-015 2.72335e-014
lwrist -9.00162e-013 -4.86668 -2.99256e-014
lhand 4.57879 4.04056 -33.7272
rfemur -20.151 15.9453 6.06627
rtibia 3.68521 6.36111e-015 -9.93923e-015
rfoot -176.596 -30.3394 161.222
rtoes 2.07929e-013 4.10608e-013 -6.92827e-014
lfemur -14.9678 -16.6924 -10.7417
ltibia 5.88403e-014 -3.18055e-014 -9.93923e-015
lfoot -7.55712 4.87877 18.0141
ltoes -1.91231e-013 1.69601e-013 3.65764e-014
687
root 10.2547 3.68661 -0.441824 88.4775 -68.6216 87.2437
lowerback -25.8276 -1.16921 -6.91921
upperback -7.06743 -0.409476 0.995452
thorax 6.46881 -0.483179 4.92508
lowerneck 13.3844 -2.97717 2.04049
upperneck 6.43 -3.93865 -4.87725
head -0.362923 -2.0048 -1.71286
rshoulderjoint -2.53792 7.61284 -29.499
rhumerus 346.352 -11.3031 -412.219
rradius 24.429 -3.10104e-014 -1.24042e-013
rwrist 9.29433e-013 -2.24194 -1.56762e-013
rhand -3.82697 2.18926 23.22
lshoulderjoint -1.86576 -5.75464 28.9979
lhumerus 349.445 5.21041 416.837
lradius 17.2992 -1.74931e-014 -3.29983e-014
lwrist 7.78853e-013 -4.85808 1.79551e-014
lhand 4.57661 4.09043 -33.8304
rfemur -20.1643 15.9899 6.05822
rtibia 3.7144 0 6.75868e-015
rfoot -176.578 -30.3151 161.2
rtoes -1.00983e-013 -1.2024e-013 4.00489e-014
lfemur -14.9571 -16.6874 -10.7419
ltibia 3.81667e-014 1.90833e-014 7.95139e-015
lfoot -7.57253 4.88491 18.0414
ltoes 1.15295e-013 -1.06884e-013 2.46493e-014
